{
  "asset": {
    "version": "2.0",
    "generator": "THREE.GLTFExporter"
  },
  "scenes": [
    {
      "name": "AuxScene",
      "nodes": [
        5
      ]
    }
  ],
  "scene": 0,
  "nodes": [
    {
      "name": "Plane_1",
      "mesh": 0
    },
    {
      "name": "Plane_2",
      "mesh": 1
    },
    {
      "name": "Plane_3",
      "mesh": 2
    },
    {
      "name": "Plane",
      "extras": {
        "name": "Plane"
      },
      "children": [
        0,
        1,
        2
      ]
    },
    {
      "name": "Scene",
      "children": [
        3
      ]
    },
    {
      "children": [
        4
      ]
    }
  ],
  "bufferViews": [
    {
      "buffer": 0,
      "byteOffset": 0,
      "byteLength": 6888,
      "target": 34962,
      "byteStride": 12
    },
    {
      "buffer": 0,
      "byteOffset": 6888,
      "byteLength": 6888,
      "target": 34962,
      "byteStride": 12
    },
    {
      "buffer": 0,
      "byteOffset": 13776,
      "byteLength": 4592,
      "target": 34962,
      "byteStride": 8
    },
    {
      "buffer": 0,
      "byteOffset": 18368,
      "byteLength": 5400,
      "target": 34963
    },
    {
      "buffer": 0,
      "byteOffset": 23768,
      "byteLength": 2436,
      "target": 34962,
      "byteStride": 12
    },
    {
      "buffer": 0,
      "byteOffset": 26204,
      "byteLength": 2436,
      "target": 34962,
      "byteStride": 12
    },
    {
      "buffer": 0,
      "byteOffset": 28640,
      "byteLength": 1624,
      "target": 34962,
      "byteStride": 8
    },
    {
      "buffer": 0,
      "byteOffset": 30264,
      "byteLength": 1728,
      "target": 34963
    },
    {
      "buffer": 0,
      "byteOffset": 31992,
      "byteLength": 1068,
      "target": 34962,
      "byteStride": 12
    },
    {
      "buffer": 0,
      "byteOffset": 33060,
      "byteLength": 1068,
      "target": 34962,
      "byteStride": 12
    },
    {
      "buffer": 0,
      "byteOffset": 34128,
      "byteLength": 712,
      "target": 34962,
      "byteStride": 8
    },
    {
      "buffer": 0,
      "byteOffset": 34840,
      "byteLength": 840,
      "target": 34963
    }
  ],
  "buffers": [
    {
      "byteLength": 35680,
      "uri": "data:application/octet-stream;base64,"
    }
  ],
  "accessors": [
    {
      "bufferView": 0,
      "componentType": 5126,
      "count": 574,
      "max": [
        0.8445779085159302,
        0.9787759184837341,
        0.03144383430480957
      ],
      "min": [
        -0.8442528247833252,
        -0.9787759184837341,
        -0.33195123076438904
      ],
      "type": "VEC3"
    },
    {
      "bufferView": 1,
      "componentType": 5126,
      "count": 574,
      "max": [
        0.9998720288276672,
        0.9997074007987976,
        1
      ],
      "min": [
        -0.9998720288276672,
        -0.9997074007987976,
        -1
      ],
      "type": "VEC3"
    },
    {
      "bufferView": 2,
      "componentType": 5126,
      "count": 574,
      "max": [
        0.9353795051574707,
        0.9998884201049805
      ],
      "min": [
        0,
        0
      ],
      "type": "VEC2"
    },
    {
      "bufferView": 3,
      "componentType": 5125,
      "count": 1350,
      "max": [
        573
      ],
      "min": [
        0
      ],
      "type": "SCALAR"
    },
    {
      "bufferView": 4,
      "componentType": 5126,
      "count": 203,
      "max": [
        0.844679057598114,
        0.9787758588790894,
        0.0013516545295715332
      ],
      "min": [
        -0.8441515564918518,
        -0.9787758588790894,
        -0.3314417004585266
      ],
      "type": "VEC3"
    },
    {
      "bufferView": 5,
      "componentType": 5126,
      "count": 203,
      "max": [
        0.9248908162117004,
        0.9897704124450684,
        0.633722186088562
      ],
      "min": [
        -0.9435449838638306,
        -0.9897703528404236,
        -1
      ],
      "type": "VEC3"
    },
    {
      "bufferView": 6,
      "componentType": 5126,
      "count": 203,
      "max": [
        0.9995745420455933,
        0.9998772740364075
      ],
      "min": [
        0.5081257820129395,
        0.1434001326560974
      ],
      "type": "VEC2"
    },
    {
      "bufferView": 7,
      "componentType": 5125,
      "count": 432,
      "max": [
        202
      ],
      "min": [
        0
      ],
      "type": "SCALAR"
    },
    {
      "bufferView": 8,
      "componentType": 5126,
      "count": 89,
      "max": [
        0.8444110155105591,
        0.4963357448577881,
        -0.00011414289474487305
      ],
      "min": [
        -0.8444110155105591,
        -0.4961668848991394,
        -0.3309483528137207
      ],
      "type": "VEC3"
    },
    {
      "bufferView": 9,
      "componentType": 5126,
      "count": 89,
      "max": [
        1,
        0.5919514298439026,
        0.31921887397766113
      ],
      "min": [
        -1,
        -0.5919515490531921,
        -1
      ],
      "type": "VEC3"
    },
    {
      "bufferView": 10,
      "componentType": 5126,
      "count": 89,
      "max": [
        0.999698281288147,
        0.7689758539199829
      ],
      "min": [
        0.21867403388023376,
        0.11392325162887573
      ],
      "type": "VEC2"
    },
    {
      "bufferView": 11,
      "componentType": 5125,
      "count": 210,
      "max": [
        88
      ],
      "min": [
        0
      ],
      "type": "SCALAR"
    }
  ],
  "materials": [
    {
      "pbrMetallicRoughness": {
        "baseColorFactor": [
          0.19215686274509805,
          0.5647058823529412,
          0.10196078431372549,
          1
        ],
        "metallicFactor": 0.5,
        "roughnessFactor": 0.5
      },
      "doubleSided": true,
      "extensions": {
        "KHR_materials_clearcoat": {
          "clearcoatFactor": 0,
          "clearcoatRoughnessFactor": 0
        }
      }
    },
    {
      "pbrMetallicRoughness": {
        "baseColorFactor": [
          0.11764705882352941,
          0.3215686274509804,
          0.09411764705882353,
          1
        ],
        "metallicFactor": 0.5,
        "roughnessFactor": 0.5
      },
      "doubleSided": true,
      "extensions": {
        "KHR_materials_clearcoat": {
          "clearcoatFactor": 0,
          "clearcoatRoughnessFactor": 0
        }
      }
    },
    {
      "pbrMetallicRoughness": {
        "baseColorFactor": [
          0.09803921568627451,
          0.2901960784313726,
          0.09411764705882353,
          1
        ],
        "metallicFactor": 0.5,
        "roughnessFactor": 0.5
      },
      "doubleSided": true,
      "extensions": {
        "KHR_materials_clearcoat": {
          "clearcoatFactor": 0,
          "clearcoatRoughnessFactor": 0
        }
      }
    }
  ],
  "meshes": [
    {
      "primitives": [
        {
          "mode": 4,
          "attributes": {
            "POSITION": 0,
            "NORMAL": 1,
            "TEXCOORD_0": 2
          },
          "indices": 3,
          "material": 0
        }
      ]
    },
    {
      "primitives": [
        {
          "mode": 4,
          "attributes": {
            "POSITION": 4,
            "NORMAL": 5,
            "TEXCOORD_0": 6
          },
          "indices": 7,
          "material": 1
        }
      ]
    },
    {
      "primitives": [
        {
          "mode": 4,
          "attributes": {
            "POSITION": 8,
            "NORMAL": 9,
            "TEXCOORD_0": 10
          },
          "indices": 11,
          "material": 2
        }
      ]
    }
  ],
  "extensionsUsed": [
    "KHR_materials_clearcoat"
  ]
}