{
  "asset": {
    "version": "2.0",
    "generator": "THREE.GLTFExporter"
  },
  "scenes": [
    {
      "name": "AuxScene",
      "nodes": [
        3
      ]
    }
  ],
  "scene": 0,
  "nodes": [
    {
      "name": "File_Plane",
      "extras": {
        "name": "File Plane"
      },
      "mesh": 0
    },
    {
      "children": [
        0
      ]
    },
    {
      "name": "Scene",
      "children": [
        1
      ]
    },
    {
      "children": [
        2
      ]
    }
  ],
  "bufferViews": [
    {
      "buffer": 0,
      "byteOffset": 0,
      "byteLength": 548856,
      "target": 34962,
      "byteStride": 12
    },
    {
      "buffer": 0,
      "byteOffset": 548856,
      "byteLength": 548856,
      "target": 34962,
      "byteStride": 12
    },
    {
      "buffer": 0,
      "byteOffset": 1097712,
      "byteLength": 365904,
      "target": 34962,
      "byteStride": 8
    },
    {
      "buffer": 0,
      "byteOffset": 1463616,
      "byteLength": 1014528,
      "target": 34963
    }
  ],
  "buffers": [
    {
      "byteLength": 2478144,
      "uri": "data:application/octet-stream;base64,"
    }
  ],
  "accessors": [
    {
      "bufferView": 0,
      "componentType": 5126,
      "count": 45738,
      "max": [
        0.7499204874038696,
        0.961999773979187,
        0.2663290798664093
      ],
      "min": [
        -0.7329550981521606,
        -0.9450534582138062,
        -0.06111648306250572
      ],
      "type": "VEC3"
    },
    {
      "bufferView": 1,
      "componentType": 5126,
      "count": 45738,
      "max": [
        0.9999990463256836,
        0.999995231628418,
        0.9999990463256836
      ],
      "min": [
        -0.9999990463256836,
        -0.9999990463256836,
        -0.9999990463256836
      ],
      "type": "VEC3"
    },
    {
      "bufferView": 2,
      "componentType": 5126,
      "count": 45738,
      "max": [
        1.003041386604309,
        1
      ],
      "min": [
        0,
        -0.003041386604309082
      ],
      "type": "VEC2"
    },
    {
      "bufferView": 3,
      "componentType": 5125,
      "count": 253632,
      "max": [
        45737
      ],
      "min": [
        0
      ],
      "type": "SCALAR"
    }
  ],
  "materials": [
    {
      "pbrMetallicRoughness": {
        "metallicFactor": 0.5,
        "roughnessFactor": 0.5
      },
      "doubleSided": true,
      "extensions": {
        "KHR_materials_clearcoat": {
          "clearcoatFactor": 0,
          "clearcoatRoughnessFactor": 0
        }
      }
    }
  ],
  "meshes": [
    {
      "primitives": [
        {
          "mode": 4,
          "attributes": {
            "POSITION": 0,
            "NORMAL": 1,
            "TEXCOORD_0": 2
          },
          "indices": 3,
          "material": 0
        }
      ]
    }
  ],
  "extensionsUsed": [
    "KHR_materials_clearcoat"
  ]
}